<?xml version="1.0" encoding="UTF-8" standalone="no"?>
<svg
   version="1.0"
   width="640.000000pt"
   height="480.000000pt"
   viewBox="0 0 640.000000 480.000000"
   preserveAspectRatio="xMidYMid meet"
   id="svg1"
   sodipodi:docname="BuildOnTitanX2.svg"
   inkscape:version="1.4.2 (ebf0e940d0, 2025-05-08)"
   xmlns:inkscape="http://www.inkscape.org/namespaces/inkscape"
   xmlns:sodipodi="http://sodipodi.sourceforge.net/DTD/sodipodi-0.dtd"
   xmlns="http://www.w3.org/2000/svg"
   xmlns:svg="http://www.w3.org/2000/svg">
  <defs
     id="defs1" />
  <sodipodi:namedview
     id="namedview1"
     pagecolor="#505050"
     bordercolor="#ffffff"
     borderopacity="1"
     inkscape:showpageshadow="0"
     inkscape:pageopacity="0"
     inkscape:pagecheckerboard="1"
     inkscape:deskcolor="#505050"
     inkscape:document-units="pt"
     inkscape:zoom="0.73500435"
     inkscape:cx="174.14863"
     inkscape:cy="431.28996"
     inkscape:window-width="1886"
     inkscape:window-height="1123"
     inkscape:window-x="0"
     inkscape:window-y="0"
     inkscape:window-maximized="1"
     inkscape:current-layer="g1" />
  <g
     transform="matrix(0.1,0,0,-0.07911505,-37.880496,452.25174)"
     fill="#000000"
     stroke="none"
     id="g1">
    <path
       d="M 1288.5327,2175.2031 2436.8246,535.0606 5168.7366,2430.3054 4043.1707,3982.3308 Z"
       id="path1"
       style="fill:#000055;fill-opacity:0.88;stroke:#00ff55;stroke-width:112.427;stroke-dasharray:none;stroke-opacity:1"
       sodipodi:nodetypes="ccccc" />
    <g
       id="g38">
      <path
         d="m 2796.0022,1889.996 -614.0039,-413.0036 323.1446,-469.994 621.7236,429.5194 z"
         style="fill:#3d5898;fill-opacity:0.88"
         id="path37" />
      <path
         d="m 3347.0032,1940.006 -303.999,-202.0026 163.9892,-255.012 319.0137,209.0014 z"
         style="fill:#593755;fill-opacity:0.88"
         id="path36" />
      <path
         d="m 3198.9954,2160.0055 -318.999,-215.0003 101.997,-128.9966 305.0098,208.9829 z"
         style="fill:#c01d55;fill-opacity:0.88"
         id="path35" />
      <path
         d="m 2484.7879,3204.4805 -1050.9965,-643.5879 689.3099,-1000.8959 1003.897,674.9961 z"
         style="fill:#006c55;fill-opacity:0.88"
         id="path34"
         sodipodi:nodetypes="ccccc" />
      <path
         d="M 4045.9973,4209.008 2556.0022,3248.0052 3606.7786,1769.1278 5132.5007,2792.2792 Z"
         style="fill:#000f55;fill-opacity:0.88"
         id="path33"
         sodipodi:nodetypes="ccccc" />
      <path
         d="M 4081.6516,4335.2458 C 3155.549,3754.0648 2266.2432,3134.2618 1329.7448,2580.1175 L 2503.18,860.39381 5246.1521,2780.7997 Z M 4045.9973,4209.008 5107.2471,2815.0793 3606.7786,1769.1278 2570.4329,3243.4452 Z m -1561.2094,-1031.8876 642.2104,-942.1276 -998.795,-655.6495 c -238.2063,314.018 -435.0899,630.1667 -655.3466,964.0916 z m 714.2075,-1017.1149 88.0078,-135.014 -305.0098,-208.9829 -101.997,128.9966 z m 148.0078,-219.9995 179.0039,-248.0132 -319.0137,-209.0014 -163.9892,255.012 z m -551.001,-50.01 330.8643,-453.4782 -621.7236,-429.5194 -323.1446,469.994 z"
         style="fill:#00ff55;fill-opacity:0.88"
         id="path38"
         sodipodi:nodetypes="cccccccccccccccccccccccccccccc" />
    </g>
  </g>
</svg>
